<mxfile host="app.diagrams.net" agent="Mozilla/5.0 (X11; Linux x86_64) AppleWebKit/537.36 (KHTML, like Gecko) Chrome/133.0.0.0 Safari/537.36" version="26.1.1">
  <diagram name="Page-1" id="vxOPZugNCJ2shPD0R46R">
    <mxGraphModel dx="1750" dy="952" grid="1" gridSize="10" guides="1" tooltips="1" connect="1" arrows="1" fold="1" page="1" pageScale="1" pageWidth="550" pageHeight="1100" math="0" shadow="0">
      <root>
        <mxCell id="0" />
        <mxCell id="1" parent="0" />
        <mxCell id="WV4KZU-K2HEF4Ivt-XvY-5" value="SEC-350 WAN 10.0.17.0/24" style="rounded=1;whiteSpace=wrap;html=1;align=center;" parent="1" vertex="1">
          <mxGeometry x="560" y="380" width="340" height="40" as="geometry" />
        </mxCell>
        <mxCell id="WV4KZU-K2HEF4Ivt-XvY-7" value="LAN 172.16.150.0/24" style="rounded=1;whiteSpace=wrap;html=1;align=center;" parent="1" vertex="1">
          <mxGeometry x="770" y="620" width="340" height="40" as="geometry" />
        </mxCell>
        <mxCell id="WV4KZU-K2HEF4Ivt-XvY-8" value="DMZ 172.16.50.0/29" style="rounded=1;whiteSpace=wrap;html=1;align=center;" parent="1" vertex="1">
          <mxGeometry x="160" y="610" width="340" height="40" as="geometry" />
        </mxCell>
        <mxCell id="WV4KZU-K2HEF4Ivt-XvY-9" value="FW01" style="outlineConnect=0;dashed=0;verticalLabelPosition=bottom;verticalAlign=top;align=center;html=1;shape=mxgraph.aws3.router;fillColor=#F58534;gradientColor=none;" parent="1" vertex="1">
          <mxGeometry x="610" y="502.6" width="69" height="72" as="geometry" />
        </mxCell>
        <mxCell id="WV4KZU-K2HEF4Ivt-XvY-10" value="" style="endArrow=none;html=1;rounded=0;entryX=0.855;entryY=0.855;entryDx=0;entryDy=0;entryPerimeter=0;exitX=0.104;exitY=0;exitDx=0;exitDy=0;exitPerimeter=0;" parent="1" source="WV4KZU-K2HEF4Ivt-XvY-7" target="WV4KZU-K2HEF4Ivt-XvY-9" edge="1">
          <mxGeometry width="50" height="50" relative="1" as="geometry">
            <mxPoint x="921" y="710" as="sourcePoint" />
            <mxPoint x="971" y="660" as="targetPoint" />
          </mxGeometry>
        </mxCell>
        <mxCell id="WV4KZU-K2HEF4Ivt-XvY-12" value="172.16.150.2&lt;div&gt;eth2&lt;/div&gt;" style="edgeLabel;html=1;align=center;verticalAlign=middle;resizable=0;points=[];rotation=0;" parent="WV4KZU-K2HEF4Ivt-XvY-10" vertex="1" connectable="0">
          <mxGeometry x="0.002" y="2" relative="1" as="geometry">
            <mxPoint x="-6" y="-14" as="offset" />
          </mxGeometry>
        </mxCell>
        <mxCell id="WV4KZU-K2HEF4Ivt-XvY-15" value="" style="endArrow=none;html=1;rounded=0;entryX=0.145;entryY=0.855;entryDx=0;entryDy=0;entryPerimeter=0;exitX=0.829;exitY=-0.05;exitDx=0;exitDy=0;exitPerimeter=0;" parent="1" source="WV4KZU-K2HEF4Ivt-XvY-8" target="WV4KZU-K2HEF4Ivt-XvY-9" edge="1">
          <mxGeometry width="50" height="50" relative="1" as="geometry">
            <mxPoint x="491" y="560" as="sourcePoint" />
            <mxPoint x="541" y="510" as="targetPoint" />
          </mxGeometry>
        </mxCell>
        <mxCell id="WV4KZU-K2HEF4Ivt-XvY-16" value="172.16.50.2&lt;div&gt;eth1&lt;/div&gt;" style="edgeLabel;html=1;align=center;verticalAlign=middle;resizable=0;points=[];rotation=0;" parent="WV4KZU-K2HEF4Ivt-XvY-15" vertex="1" connectable="0">
          <mxGeometry x="0.4" y="-1" relative="1" as="geometry">
            <mxPoint x="-17" y="6" as="offset" />
          </mxGeometry>
        </mxCell>
        <mxCell id="WV4KZU-K2HEF4Ivt-XvY-18" value="LOG01 (DECOMMISSIONED,&amp;nbsp;&lt;div&gt;THEN RECOMMISSIONED AS A&amp;nbsp;&lt;/div&gt;&lt;div&gt;JUMP SERVER)&lt;br&gt;&lt;div&gt;172.16.50.5&lt;/div&gt;&lt;/div&gt;" style="outlineConnect=0;dashed=0;verticalLabelPosition=bottom;verticalAlign=top;align=center;html=1;shape=mxgraph.aws3.traditional_server;fillColor=#7D7C7C;gradientColor=none;" parent="1" vertex="1">
          <mxGeometry x="420" y="690" width="35.5" height="53" as="geometry" />
        </mxCell>
        <mxCell id="WV4KZU-K2HEF4Ivt-XvY-21" value="" style="endArrow=none;html=1;rounded=0;entryX=0.5;entryY=0;entryDx=0;entryDy=0;exitX=0.153;exitY=0.975;exitDx=0;exitDy=0;exitPerimeter=0;" parent="1" source="WV4KZU-K2HEF4Ivt-XvY-8" target="8yr2mNF9FMK26sW0gYA2-46" edge="1">
          <mxGeometry width="50" height="50" relative="1" as="geometry">
            <mxPoint x="481" y="850" as="sourcePoint" />
            <mxPoint x="213.25" y="690" as="targetPoint" />
          </mxGeometry>
        </mxCell>
        <mxCell id="WV4KZU-K2HEF4Ivt-XvY-23" value="" style="endArrow=none;html=1;rounded=0;entryX=0.5;entryY=0;entryDx=0;entryDy=0;entryPerimeter=0;exitX=0.432;exitY=1.047;exitDx=0;exitDy=0;exitPerimeter=0;" parent="1" source="WV4KZU-K2HEF4Ivt-XvY-5" target="WV4KZU-K2HEF4Ivt-XvY-9" edge="1">
          <mxGeometry width="50" height="50" relative="1" as="geometry">
            <mxPoint x="805" y="530" as="sourcePoint" />
            <mxPoint x="855" y="480" as="targetPoint" />
          </mxGeometry>
        </mxCell>
        <mxCell id="6gv1575Ye6TbEdJx1Vt9-2" value="10.0.17.151&lt;div&gt;eth0&lt;/div&gt;" style="edgeLabel;html=1;align=center;verticalAlign=middle;resizable=0;points=[];" parent="WV4KZU-K2HEF4Ivt-XvY-23" vertex="1" connectable="0">
          <mxGeometry x="0.4517" y="1" relative="1" as="geometry">
            <mxPoint as="offset" />
          </mxGeometry>
        </mxCell>
        <mxCell id="WV4KZU-K2HEF4Ivt-XvY-25" value="esxi02-fw1" style="image;html=1;image=img/lib/clip_art/networking/Firewall_02_128x128.png" parent="1" vertex="1">
          <mxGeometry x="466.01" y="170" width="80" height="80" as="geometry" />
        </mxCell>
        <mxCell id="WV4KZU-K2HEF4Ivt-XvY-26" value="&lt;div&gt;&lt;br&gt;&lt;/div&gt;" style="shape=umlActor;verticalLabelPosition=bottom;verticalAlign=top;html=1;outlineConnect=0;" parent="1" vertex="1">
          <mxGeometry x="190" y="210" width="50" height="80" as="geometry" />
        </mxCell>
        <mxCell id="WV4KZU-K2HEF4Ivt-XvY-27" value="" style="endArrow=none;html=1;rounded=0;exitX=0;exitY=0.5;exitDx=0;exitDy=0;" parent="1" source="8yr2mNF9FMK26sW0gYA2-48" target="WV4KZU-K2HEF4Ivt-XvY-26" edge="1">
          <mxGeometry width="50" height="50" relative="1" as="geometry">
            <mxPoint x="460" y="390" as="sourcePoint" />
            <mxPoint x="510" y="340" as="targetPoint" />
          </mxGeometry>
        </mxCell>
        <mxCell id="WV4KZU-K2HEF4Ivt-XvY-29" value="sec350.cyber.local&lt;div&gt;10.0.17.100&lt;/div&gt;" style="image;points=[];aspect=fixed;html=1;align=center;shadow=0;dashed=0;image=img/lib/allied_telesis/computer_and_terminals/Server_Desktop.svg;" parent="1" vertex="1">
          <mxGeometry x="443.99" y="364" width="56.01" height="71" as="geometry" />
        </mxCell>
        <mxCell id="WV4KZU-K2HEF4Ivt-XvY-30" value="" style="endArrow=none;html=1;rounded=0;entryX=0;entryY=1;entryDx=0;entryDy=0;exitX=0.417;exitY=0.031;exitDx=0;exitDy=0;exitPerimeter=0;" parent="1" source="WV4KZU-K2HEF4Ivt-XvY-29" target="WV4KZU-K2HEF4Ivt-XvY-25" edge="1">
          <mxGeometry width="50" height="50" relative="1" as="geometry">
            <mxPoint x="620" y="470" as="sourcePoint" />
            <mxPoint x="670" y="420" as="targetPoint" />
          </mxGeometry>
        </mxCell>
        <mxCell id="WV4KZU-K2HEF4Ivt-XvY-31" value="port forwarding" style="edgeLabel;html=1;align=center;verticalAlign=middle;resizable=0;points=[];rotation=90;" parent="WV4KZU-K2HEF4Ivt-XvY-30" vertex="1" connectable="0">
          <mxGeometry x="-0.27" y="1" relative="1" as="geometry">
            <mxPoint x="-7" as="offset" />
          </mxGeometry>
        </mxCell>
        <mxCell id="WV4KZU-K2HEF4Ivt-XvY-32" value="" style="endArrow=none;html=1;rounded=0;exitX=0;exitY=0.5;exitDx=0;exitDy=0;entryX=1.006;entryY=0.471;entryDx=0;entryDy=0;entryPerimeter=0;" parent="1" source="WV4KZU-K2HEF4Ivt-XvY-5" target="WV4KZU-K2HEF4Ivt-XvY-29" edge="1">
          <mxGeometry width="50" height="50" relative="1" as="geometry">
            <mxPoint x="570" y="440" as="sourcePoint" />
            <mxPoint x="410" y="380" as="targetPoint" />
          </mxGeometry>
        </mxCell>
        <mxCell id="WV4KZU-K2HEF4Ivt-XvY-33" value="" style="endArrow=none;html=1;rounded=0;entryX=1;entryY=0.965;entryDx=0;entryDy=0;entryPerimeter=0;exitX=0.49;exitY=-0.035;exitDx=0;exitDy=0;exitPerimeter=0;" parent="1" source="WV4KZU-K2HEF4Ivt-XvY-5" target="WV4KZU-K2HEF4Ivt-XvY-25" edge="1">
          <mxGeometry width="50" height="50" relative="1" as="geometry">
            <mxPoint x="600" y="310" as="sourcePoint" />
            <mxPoint x="650" y="260" as="targetPoint" />
          </mxGeometry>
        </mxCell>
        <mxCell id="WV4KZU-K2HEF4Ivt-XvY-34" value="10.0.17.2" style="edgeLabel;html=1;align=center;verticalAlign=middle;resizable=0;points=[];" parent="WV4KZU-K2HEF4Ivt-XvY-33" vertex="1" connectable="0">
          <mxGeometry x="0.7364" y="-1" relative="1" as="geometry">
            <mxPoint x="8" y="8" as="offset" />
          </mxGeometry>
        </mxCell>
        <mxCell id="JkLcdCIDIRtKrtIc7PYW-1" value="RW01&lt;div&gt;10.0.17.51&lt;/div&gt;" style="shape=image;html=1;verticalAlign=top;verticalLabelPosition=bottom;labelBackgroundColor=#ffffff;imageAspect=0;aspect=fixed;image=https://cdn1.iconfinder.com/data/icons/operating-system-flat-1/30/ubuntu-128.png;clipPath=inset(10.94% 10.94% 10.94% 10.94%);" parent="1" vertex="1">
          <mxGeometry x="950" y="360" width="60" height="60" as="geometry" />
        </mxCell>
        <mxCell id="JkLcdCIDIRtKrtIc7PYW-4" value="MGMT 172.16.2000.0/28" style="rounded=1;whiteSpace=wrap;html=1;align=center;" parent="1" vertex="1">
          <mxGeometry x="782" y="970" width="340" height="40" as="geometry" />
        </mxCell>
        <mxCell id="JkLcdCIDIRtKrtIc7PYW-5" value="" style="endArrow=none;html=1;rounded=0;fontSize=12;startSize=8;endSize=8;curved=1;entryX=0.121;entryY=1.05;entryDx=0;entryDy=0;entryPerimeter=0;exitX=0.5;exitY=0;exitDx=0;exitDy=0;exitPerimeter=0;" parent="1" source="JkLcdCIDIRtKrtIc7PYW-6" target="WV4KZU-K2HEF4Ivt-XvY-7" edge="1">
          <mxGeometry width="50" height="50" relative="1" as="geometry">
            <mxPoint x="846" y="800" as="sourcePoint" />
            <mxPoint x="1034" y="830" as="targetPoint" />
          </mxGeometry>
        </mxCell>
        <mxCell id="JkLcdCIDIRtKrtIc7PYW-17" value="&lt;div&gt;172.16.150.3&lt;/div&gt;eth0" style="edgeLabel;html=1;align=center;verticalAlign=middle;resizable=0;points=[];fontSize=12;" parent="JkLcdCIDIRtKrtIc7PYW-5" vertex="1" connectable="0">
          <mxGeometry x="-0.5172" y="-1" relative="1" as="geometry">
            <mxPoint as="offset" />
          </mxGeometry>
        </mxCell>
        <mxCell id="JkLcdCIDIRtKrtIc7PYW-9" value="" style="endArrow=none;html=1;rounded=0;fontSize=12;startSize=8;endSize=8;curved=1;exitX=0.5;exitY=1;exitDx=0;exitDy=0;exitPerimeter=0;entryX=0.103;entryY=0.05;entryDx=0;entryDy=0;entryPerimeter=0;" parent="1" source="JkLcdCIDIRtKrtIc7PYW-6" target="JkLcdCIDIRtKrtIc7PYW-4" edge="1">
          <mxGeometry width="50" height="50" relative="1" as="geometry">
            <mxPoint x="984" y="880" as="sourcePoint" />
            <mxPoint x="1034" y="830" as="targetPoint" />
          </mxGeometry>
        </mxCell>
        <mxCell id="JkLcdCIDIRtKrtIc7PYW-18" value="172.16.200.2&lt;div&gt;eth1&lt;/div&gt;" style="edgeLabel;html=1;align=center;verticalAlign=middle;resizable=0;points=[];fontSize=12;" parent="JkLcdCIDIRtKrtIc7PYW-9" vertex="1" connectable="0">
          <mxGeometry x="-0.2728" y="1" relative="1" as="geometry">
            <mxPoint x="-1" y="8" as="offset" />
          </mxGeometry>
        </mxCell>
        <mxCell id="JkLcdCIDIRtKrtIc7PYW-11" value="wazuh&lt;div&gt;172.16.200.10&lt;/div&gt;" style="shape=image;html=1;verticalAlign=top;verticalLabelPosition=bottom;labelBackgroundColor=#ffffff;imageAspect=0;aspect=fixed;image=https://cdn1.iconfinder.com/data/icons/logos-brands-1/24/logo_brand_brands_logos_ubuntu-128.png" parent="1" vertex="1">
          <mxGeometry x="782" y="1070" width="60" height="60" as="geometry" />
        </mxCell>
        <mxCell id="JkLcdCIDIRtKrtIc7PYW-12" value="MGMT02&lt;div&gt;172.16.200.11&lt;/div&gt;" style="sketch=0;aspect=fixed;pointerEvents=1;shadow=0;dashed=0;html=1;strokeColor=none;labelPosition=center;verticalLabelPosition=bottom;verticalAlign=top;align=center;fillColor=#00188D;shape=mxgraph.mscae.enterprise.windows_server" parent="1" vertex="1">
          <mxGeometry x="940" y="1070" width="39" height="50" as="geometry" />
        </mxCell>
        <mxCell id="JkLcdCIDIRtKrtIc7PYW-15" value="" style="endArrow=none;html=1;rounded=0;fontSize=12;startSize=8;endSize=8;curved=1;entryX=0.5;entryY=1;entryDx=0;entryDy=0;exitX=0.308;exitY=0.12;exitDx=0;exitDy=0;exitPerimeter=0;" parent="1" source="JkLcdCIDIRtKrtIc7PYW-12" target="JkLcdCIDIRtKrtIc7PYW-4" edge="1">
          <mxGeometry width="50" height="50" relative="1" as="geometry">
            <mxPoint x="984" y="1000" as="sourcePoint" />
            <mxPoint x="1034" y="950" as="targetPoint" />
          </mxGeometry>
        </mxCell>
        <mxCell id="JkLcdCIDIRtKrtIc7PYW-16" value="" style="endArrow=none;html=1;rounded=0;fontSize=12;startSize=8;endSize=8;curved=1;entryX=0.107;entryY=1.038;entryDx=0;entryDy=0;entryPerimeter=0;exitX=0.5;exitY=0;exitDx=0;exitDy=0;" parent="1" source="JkLcdCIDIRtKrtIc7PYW-11" target="JkLcdCIDIRtKrtIc7PYW-4" edge="1">
          <mxGeometry width="50" height="50" relative="1" as="geometry">
            <mxPoint x="984" y="1000" as="sourcePoint" />
            <mxPoint x="1034" y="950" as="targetPoint" />
          </mxGeometry>
        </mxCell>
        <mxCell id="8yr2mNF9FMK26sW0gYA2-4" value="&lt;div&gt;ANY &amp;gt; 172.16.50.3:80&lt;/div&gt;&lt;div&gt;172.16.150.10:22 &amp;gt; ANY:22&lt;/div&gt;" style="shape=flexArrow;endArrow=classic;html=1;rounded=0;endSize=15.103448275862068;strokeWidth=1;sourcePerimeterSpacing=0;startSize=6;width=34.48275862068966;" parent="1" edge="1">
          <mxGeometry width="50" height="50" relative="1" as="geometry">
            <mxPoint x="720" y="640" as="sourcePoint" />
            <mxPoint x="540" y="640" as="targetPoint" />
          </mxGeometry>
        </mxCell>
        <mxCell id="8yr2mNF9FMK26sW0gYA2-7" value="ANY &gt; 172.16.200.10:1514,1515" style="shape=flexArrow;endArrow=classic;rounded=0;width=24.137931034482758;endSize=9.379310344827585;" parent="1" edge="1">
          <mxGeometry width="50" height="50" relative="1" as="geometry">
            <mxPoint x="550" y="680" as="sourcePoint" />
            <mxPoint x="740" y="680" as="targetPoint" />
            <mxPoint as="offset" />
          </mxGeometry>
        </mxCell>
        <mxCell id="8yr2mNF9FMK26sW0gYA2-12" value="ANY:80 &gt; 172.16.50.3:80" style="shape=flexArrow;endArrow=classic;rounded=0;endSize=11.33;strokeWidth=1;sourcePerimeterSpacing=0;startSize=6;width=28;horizontal=1;labelBackgroundColor=default;" parent="1" edge="1">
          <mxGeometry x="-0.1119" y="-8" width="50" height="50" relative="1" as="geometry">
            <mxPoint x="575" y="441.6" as="sourcePoint" />
            <mxPoint x="489" y="561.6" as="targetPoint" />
            <mxPoint as="offset" />
          </mxGeometry>
        </mxCell>
        <mxCell id="8yr2mNF9FMK26sW0gYA2-15" value="&lt;div&gt;ANY &amp;gt; ANY&lt;/div&gt;&lt;div&gt;No restrictions&lt;br&gt;&lt;/div&gt;" style="shape=flexArrow;endArrow=classic;html=1;rounded=0;endSize=15.019354838709678;strokeWidth=1;sourcePerimeterSpacing=0;startSize=6;width=20;" parent="1" edge="1">
          <mxGeometry x="-0.2319" width="50" height="50" relative="1" as="geometry">
            <mxPoint x="910" y="580" as="sourcePoint" />
            <mxPoint x="883" y="450" as="targetPoint" />
            <mxPoint as="offset" />
          </mxGeometry>
        </mxCell>
        <mxCell id="8yr2mNF9FMK26sW0gYA2-19" value="FW01 default policy:&#xa;DROP with logging&#xa;Established connections allowed " style="rounded=0;whiteSpace=wrap;fontSize=10;verticalAlign=middle;" parent="1" vertex="1">
          <mxGeometry x="700" y="480" width="151" height="70" as="geometry" />
        </mxCell>
        <mxCell id="8yr2mNF9FMK26sW0gYA2-20" value="" style="endArrow=none;html=1;rounded=0;entryX=0;entryY=0.5;entryDx=0;entryDy=0;exitX=1;exitY=0.5;exitDx=0;exitDy=0;" parent="1" source="WV4KZU-K2HEF4Ivt-XvY-5" target="JkLcdCIDIRtKrtIc7PYW-1" edge="1">
          <mxGeometry width="50" height="50" relative="1" as="geometry">
            <mxPoint x="730" y="490" as="sourcePoint" />
            <mxPoint x="780" y="440" as="targetPoint" />
          </mxGeometry>
        </mxCell>
        <mxCell id="8yr2mNF9FMK26sW0gYA2-23" value="FW-MGMT default policy:&#xa;DROP with logging&#xa;Established connections allowed " style="rounded=0;whiteSpace=wrap;fontSize=10;verticalAlign=middle;" parent="1" vertex="1">
          <mxGeometry x="631" y="790" width="151" height="70" as="geometry" />
        </mxCell>
        <mxCell id="8yr2mNF9FMK26sW0gYA2-25" value="" style="shape=flexArrow;endArrow=classic;html=1;rounded=0;width=19.25925925925926;endSize=11.2;" parent="1" edge="1">
          <mxGeometry width="50" height="50" relative="1" as="geometry">
            <mxPoint x="940" y="680" as="sourcePoint" />
            <mxPoint x="950" y="846" as="targetPoint" />
          </mxGeometry>
        </mxCell>
        <mxCell id="8yr2mNF9FMK26sW0gYA2-26" value="&lt;div&gt;172.16.150.10:22 &amp;gt; 172.16.200.10:22&lt;br&gt;&lt;/div&gt;&lt;div&gt;172.16.150.10:443 &amp;gt; 172.16.200.10:443&lt;/div&gt;ANY &amp;gt; 172.16.200.10:1514,1515" style="edgeLabel;html=1;align=center;verticalAlign=middle;resizable=0;points=[];" parent="8yr2mNF9FMK26sW0gYA2-25" vertex="1" connectable="0">
          <mxGeometry x="-0.1287" y="2" relative="1" as="geometry">
            <mxPoint x="24" y="-2" as="offset" />
          </mxGeometry>
        </mxCell>
        <mxCell id="8yr2mNF9FMK26sW0gYA2-28" value="" style="shape=flexArrow;endArrow=classic;html=1;rounded=0;width=13.793103448275863;endSize=7.63448275862069;" parent="1" edge="1">
          <mxGeometry width="50" height="50" relative="1" as="geometry">
            <mxPoint x="920" y="950" as="sourcePoint" />
            <mxPoint x="900" y="790" as="targetPoint" />
          </mxGeometry>
        </mxCell>
        <mxCell id="8yr2mNF9FMK26sW0gYA2-29" value="&lt;div&gt;ANY &amp;gt; 172.16.150.0/24&lt;/div&gt;&lt;div&gt;ANY &amp;gt; 172.16.50.0/29&lt;br&gt;&lt;/div&gt;" style="edgeLabel;html=1;align=center;verticalAlign=middle;resizable=0;points=[];" parent="8yr2mNF9FMK26sW0gYA2-28" vertex="1" connectable="0">
          <mxGeometry x="-0.0417" y="-7" relative="1" as="geometry">
            <mxPoint x="23" y="18" as="offset" />
          </mxGeometry>
        </mxCell>
        <mxCell id="8yr2mNF9FMK26sW0gYA2-31" value="&lt;div&gt;&lt;br&gt;&lt;/div&gt;" style="shape=umlActor;verticalLabelPosition=bottom;verticalAlign=top;html=1;outlineConnect=0;" parent="1" vertex="1">
          <mxGeometry x="1115" y="200" width="50" height="80" as="geometry" />
        </mxCell>
        <mxCell id="8yr2mNF9FMK26sW0gYA2-33" value="" style="endArrow=none;html=1;rounded=0;exitX=0.612;exitY=-0.033;exitDx=0;exitDy=0;exitPerimeter=0;" parent="1" source="WV4KZU-K2HEF4Ivt-XvY-7" target="JkLcdCIDIRtKrtIc7PYW-2" edge="1">
          <mxGeometry width="50" height="50" relative="1" as="geometry">
            <mxPoint x="970" y="590" as="sourcePoint" />
            <mxPoint x="1020" y="540" as="targetPoint" />
          </mxGeometry>
        </mxCell>
        <mxCell id="8yr2mNF9FMK26sW0gYA2-34" value="" style="endArrow=none;html=1;rounded=0;exitX=0.882;exitY=-0.005;exitDx=0;exitDy=0;exitPerimeter=0;" parent="1" source="WV4KZU-K2HEF4Ivt-XvY-7" target="JkLcdCIDIRtKrtIc7PYW-3" edge="1">
          <mxGeometry width="50" height="50" relative="1" as="geometry">
            <mxPoint x="1020" y="570" as="sourcePoint" />
            <mxPoint x="1070" y="520" as="targetPoint" />
          </mxGeometry>
        </mxCell>
        <mxCell id="8yr2mNF9FMK26sW0gYA2-36" value="" style="endArrow=none;html=1;rounded=0;" parent="1" source="8yr2mNF9FMK26sW0gYA2-35" target="8yr2mNF9FMK26sW0gYA2-31" edge="1">
          <mxGeometry width="50" height="50" relative="1" as="geometry">
            <mxPoint x="1090" y="430" as="sourcePoint" />
            <mxPoint x="1140" y="380" as="targetPoint" />
          </mxGeometry>
        </mxCell>
        <mxCell id="8yr2mNF9FMK26sW0gYA2-37" value="" style="endArrow=none;html=1;rounded=0;entryX=0.5;entryY=0;entryDx=0;entryDy=0;" parent="1" source="8yr2mNF9FMK26sW0gYA2-35" target="JkLcdCIDIRtKrtIc7PYW-3" edge="1">
          <mxGeometry width="50" height="50" relative="1" as="geometry">
            <mxPoint x="1090" y="430" as="sourcePoint" />
            <mxPoint x="1140" y="380" as="targetPoint" />
          </mxGeometry>
        </mxCell>
        <mxCell id="8yr2mNF9FMK26sW0gYA2-35" value="&lt;div&gt;Access via&lt;/div&gt;&lt;div&gt;Chrome Remote Desktop&lt;br&gt;&lt;/div&gt;" style="dashed=0;outlineConnect=0;html=1;align=center;labelPosition=center;verticalLabelPosition=bottom;verticalAlign=top;shape=mxgraph.weblogos.chrome;labelBackgroundColor=default;" parent="1" vertex="1">
          <mxGeometry x="1110" y="364" width="60" height="60" as="geometry" />
        </mxCell>
        <mxCell id="JkLcdCIDIRtKrtIc7PYW-6" value="&lt;span&gt;FW-MGMT&lt;/span&gt;" style="outlineConnect=0;dashed=0;verticalLabelPosition=bottom;verticalAlign=top;align=center;html=1;shape=mxgraph.aws3.router;fillColor=#F58534;gradientColor=none;labelBackgroundColor=#FFFFFF;" parent="1" vertex="1">
          <mxGeometry x="782" y="753" width="69" height="72" as="geometry" />
        </mxCell>
        <mxCell id="JkLcdCIDIRtKrtIc7PYW-2" value="wks01&lt;div&gt;172.16.150.50&lt;/div&gt;" style="image;sketch=0;aspect=fixed;html=1;points=[];align=center;fontSize=12;image=img/lib/mscae/VirtualMachineWindows.svg;" parent="1" vertex="1">
          <mxGeometry x="980" y="515.6" width="50" height="46" as="geometry" />
        </mxCell>
        <mxCell id="JkLcdCIDIRtKrtIc7PYW-3" value="mgmt01&lt;div&gt;172.16.150.10&lt;/div&gt;" style="shape=image;html=1;verticalAlign=top;verticalLabelPosition=bottom;labelBackgroundColor=#ffffff;imageAspect=0;aspect=fixed;image=https://cdn1.iconfinder.com/data/icons/operating-system-flat-1/30/ubuntu-128.png" parent="1" vertex="1">
          <mxGeometry x="1080" y="502.6" width="70" height="70" as="geometry" />
        </mxCell>
        <mxCell id="8yr2mNF9FMK26sW0gYA2-38" value="&lt;div&gt;&lt;font style=&quot;font-size: 18px;&quot;&gt;SEC 350 -&amp;nbsp; Network Security Controls&lt;/font&gt;&lt;/div&gt;&lt;div&gt;&lt;font style=&quot;&quot;&gt;&lt;font style=&quot;font-size: 18px;&quot;&gt;Network Diagram - Charlotte Croce&lt;/font&gt;&lt;font style=&quot;font-size: 16px;&quot;&gt;&lt;br&gt;&lt;/font&gt;&lt;/font&gt;&lt;/div&gt;&lt;div&gt;&lt;font style=&quot;&quot;&gt;&lt;font style=&quot;font-size: 18px;&quot;&gt;PRIOR TO MIDTERM&lt;/font&gt;&lt;/font&gt;&lt;/div&gt;" style="rounded=0;whiteSpace=wrap;html=1;" parent="1" vertex="1">
          <mxGeometry x="654" y="130" width="356" height="100" as="geometry" />
        </mxCell>
        <mxCell id="8yr2mNF9FMK26sW0gYA2-44" value="" style="shape=image;verticalLabelPosition=bottom;labelBackgroundColor=default;verticalAlign=top;aspect=fixed;imageAspect=0;image=https://wazuh.com/uploads/2022/05/wazuh-logo.png;" parent="1" vertex="1">
          <mxGeometry x="820.66" y="1040" width="89.68" height="30" as="geometry" />
        </mxCell>
        <mxCell id="8yr2mNF9FMK26sW0gYA2-46" value="WEB01&#xa;172.16.50.3" style="shape=image;verticalLabelPosition=bottom;labelBackgroundColor=default;verticalAlign=top;aspect=fixed;imageAspect=0;image=https://static-00.iconduck.com/assets.00/centos-icon-2048x2048-39pfdqnc.png;" parent="1" vertex="1">
          <mxGeometry x="160" y="687.5" width="90" height="90" as="geometry" />
        </mxCell>
        <mxCell id="8yr2mNF9FMK26sW0gYA2-47" value="" style="shape=image;verticalLabelPosition=bottom;labelBackgroundColor=default;verticalAlign=top;aspect=fixed;imageAspect=0;image=https://www.apache.org/foundation/press/kit/feather.png;" parent="1" vertex="1">
          <mxGeometry x="250" y="687.5" width="56.58" height="100" as="geometry" />
        </mxCell>
        <mxCell id="8yr2mNF9FMK26sW0gYA2-48" value="access via vSphere" style="shape=image;verticalLabelPosition=bottom;labelBackgroundColor=default;verticalAlign=top;aspect=fixed;imageAspect=0;image=https://raw.githubusercontent.com/pulumiverse/pulumi-esxi-native/main/docs/esxi-logo.png;clipPath=inset(3% 4.33% 5% 2%);" parent="1" vertex="1">
          <mxGeometry x="320" y="215.71" width="69.82" height="68.58" as="geometry" />
        </mxCell>
        <mxCell id="8yr2mNF9FMK26sW0gYA2-51" value="" style="endArrow=none;html=1;rounded=0;entryX=0;entryY=1;entryDx=0;entryDy=0;exitX=1;exitY=0.5;exitDx=0;exitDy=0;" parent="1" source="8yr2mNF9FMK26sW0gYA2-48" target="WV4KZU-K2HEF4Ivt-XvY-25" edge="1">
          <mxGeometry width="50" height="50" relative="1" as="geometry">
            <mxPoint x="490" y="330" as="sourcePoint" />
            <mxPoint x="540" y="280" as="targetPoint" />
          </mxGeometry>
        </mxCell>
        <mxCell id="8yr2mNF9FMK26sW0gYA2-52" value="" style="endArrow=none;html=1;rounded=0;entryX=0.75;entryY=1;entryDx=0;entryDy=0;exitX=0.5;exitY=0;exitDx=0;exitDy=0;exitPerimeter=0;" parent="1" source="WV4KZU-K2HEF4Ivt-XvY-18" target="WV4KZU-K2HEF4Ivt-XvY-8" edge="1">
          <mxGeometry width="50" height="50" relative="1" as="geometry">
            <mxPoint x="470" y="700" as="sourcePoint" />
            <mxPoint x="520" y="650" as="targetPoint" />
          </mxGeometry>
        </mxCell>
        <mxCell id="DTbgnu_EpuIW3-PPX9BY-1" value="Text" style="text;strokeColor=none;align=center;fillColor=none;html=1;verticalAlign=middle;whiteSpace=wrap;rounded=0;" parent="1" vertex="1">
          <mxGeometry x="570" y="500" width="60" height="30" as="geometry" />
        </mxCell>
        <mxCell id="DTbgnu_EpuIW3-PPX9BY-2" value="&lt;div&gt;&lt;font style=&quot;font-size: 8px;&quot;&gt;DELETED IN FAVOR OF NAT DESTINATION RULE&lt;/font&gt;&lt;/div&gt;&lt;font style=&quot;font-size: 8px;&quot;&gt;route 172.16.50.0/29 via 10.0.17.151&lt;/font&gt;" style="rounded=1;whiteSpace=wrap;html=1;" parent="1" vertex="1">
          <mxGeometry x="960" y="300" width="115" height="64" as="geometry" />
        </mxCell>
        <mxCell id="DTbgnu_EpuIW3-PPX9BY-3" value="" style="shape=image;verticalLabelPosition=bottom;labelBackgroundColor=default;verticalAlign=top;aspect=fixed;imageAspect=0;image=https://modsecurity.org/img/social-share.png;" parent="1" vertex="1">
          <mxGeometry x="234.96" y="767.39" width="86.67" height="22.61" as="geometry" />
        </mxCell>
        <mxCell id="DTbgnu_EpuIW3-PPX9BY-4" value="" style="endArrow=classic;html=1;rounded=0;dashed=1;" parent="1" edge="1">
          <mxGeometry width="50" height="50" relative="1" as="geometry">
            <mxPoint x="250" y="800" as="sourcePoint" />
            <mxPoint x="770" y="1080" as="targetPoint" />
          </mxGeometry>
        </mxCell>
        <mxCell id="1T3fPST5dwJRFvFpHEdL-1" value="" style="endArrow=classic;html=1;rounded=0;" edge="1" parent="1">
          <mxGeometry width="50" height="50" relative="1" as="geometry">
            <mxPoint x="640" y="490" as="sourcePoint" />
            <mxPoint x="580" y="470" as="targetPoint" />
          </mxGeometry>
        </mxCell>
        <mxCell id="1T3fPST5dwJRFvFpHEdL-2" value="&lt;font style=&quot;font-size: 8px;&quot;&gt;PF :80&lt;/font&gt;" style="edgeLabel;html=1;align=center;verticalAlign=middle;resizable=0;points=[];" vertex="1" connectable="0" parent="1T3fPST5dwJRFvFpHEdL-1">
          <mxGeometry x="0.0469" y="3" relative="1" as="geometry">
            <mxPoint x="2" y="-2" as="offset" />
          </mxGeometry>
        </mxCell>
      </root>
    </mxGraphModel>
  </diagram>
</mxfile>
